<svg xmlns="http://www.w3.org/2000/svg" width="320" height="50" viewBox="0 0 320 50" role="img" aria-labelledby="title desc">
  <title id="title">Forget the Feet Wedding Dance Syllabus</title>
  <desc id="desc">Mobile IAB ad banner for wedding dance video course.</desc>
  <defs>
    <linearGradient id="bg" x1="0" y1="0" x2="1" y2="1">
      <stop offset="0%" stop-color="#0f172a" />
      <stop offset="100%" stop-color="#1e293b" />
    </linearGradient>
    <linearGradient id="accent" x1="0" y1="0" x2="1" y2="0">
      <stop offset="0%" stop-color="#f59e0b" />
      <stop offset="100%" stop-color="#fcd34d" />
    </linearGradient>
  </defs>

  <rect width="320" height="50" rx="8" fill="url(#bg)" />
  <rect x="0" y="0" width="4" height="50" fill="url(#accent)" />

  <g fill="#e2e8f0" opacity="0.9">
    <circle cx="18" cy="16" r="3" />
    <path d="M12 36c3-7 8-10 12-8 2 1 3 3 4 5l3 6h-4l-2-4c-1-2-2-3-4-4-2 0-4 2-6 5z" />
  </g>

  <text x="36" y="20" fill="#ffffff" font-family="Arial, Helvetica, sans-serif" font-size="11" font-weight="700">
    Wedding Dance Made Easy
  </text>
  <text x="36" y="34" fill="#cbd5e1" font-family="Arial, Helvetica, sans-serif" font-size="9">
    Forget the Feet Syllabus
  </text>

  <rect x="238" y="11" width="74" height="28" rx="14" fill="#f59e0b" />
  <text x="275" y="28" text-anchor="middle" fill="#0f172a" font-family="Arial, Helvetica, sans-serif" font-size="9" font-weight="700">
    Watch Now
  </text>
</svg>
